<svg width="325" height="214" viewBox="0 0 325 214" fill="none" xmlns="http://www.w3.org/2000/svg">
<path d="M8.60976 171.317V179.854H0.0731701V171.317H8.60976ZM8.60976 162.78V171.317H0.0731701V162.78H8.60976ZM8.60976 154.244V162.78H0.0731701V154.244H8.60976ZM8.60976 145.707V154.244H0.0731701V145.707H8.60976ZM8.60976 137.171V145.707H0.0731701V137.171H8.60976ZM8.60976 128.634V137.171H0.0731701V128.634H8.60976ZM8.60976 120.098V128.634H0.0731701V120.098H8.60976ZM8.60976 111.561V120.098H0.0731701V111.561H8.60976ZM8.60976 103.024V111.561H0.0731701V103.024H8.60976ZM8.60976 94.4878V103.024H0.0731701V94.4878H8.60976ZM8.60976 85.9512V94.4878H0.0731701V85.9512H8.60976ZM17.1463 85.9512V94.4878H8.60976V85.9512H17.1463ZM17.1463 94.4878V103.024H8.60976V94.4878H17.1463ZM17.1463 103.024V111.561H8.60976V103.024H17.1463ZM17.1463 111.561V120.098H8.60976V111.561H17.1463ZM17.1463 120.098V128.634H8.60976V120.098H17.1463ZM17.1463 128.634V137.171H8.60976V128.634H17.1463ZM17.1463 137.171V145.707H8.60976V137.171H17.1463ZM25.6829 145.707V154.244H17.1463V145.707H25.6829ZM25.6829 154.244V162.78H17.1463V154.244H25.6829ZM25.6829 162.78V171.317H17.1463V162.78H25.6829ZM25.6829 171.317V179.854H17.1463V171.317H25.6829ZM25.6829 179.854V188.39H17.1463V179.854H25.6829ZM25.6829 188.39V196.927H17.1463V188.39H25.6829ZM25.6829 196.927V205.463H17.1463V196.927H25.6829ZM42.7561 205.463V214H34.2195V205.463H42.7561ZM42.7561 196.927V205.463H34.2195V196.927H42.7561ZM42.7561 188.39V196.927H34.2195V188.39H42.7561ZM42.7561 179.854V188.39H34.2195V179.854H42.7561ZM42.7561 171.317V179.854H34.2195V171.317H42.7561ZM42.7561 162.78V171.317H34.2195V162.78H42.7561ZM42.7561 154.244V162.78H34.2195V154.244H42.7561ZM42.7561 145.707V154.244H34.2195V145.707H42.7561ZM34.2195 145.707V154.244H25.6829V145.707H34.2195ZM34.2195 137.171V145.707H25.6829V137.171H34.2195ZM34.2195 154.244V162.78H25.6829V154.244H34.2195ZM34.2195 162.78V171.317H25.6829V162.78H34.2195ZM34.2195 171.317V179.854H25.6829V171.317H34.2195ZM34.2195 179.854V188.39H25.6829V179.854H34.2195ZM34.2195 188.39V196.927H25.6829V188.39H34.2195ZM34.2195 196.927V205.463H25.6829V196.927H34.2195ZM17.1463 188.39V196.927H8.60976V188.39H17.1463ZM17.1463 179.854V188.39H8.60976V179.854H17.1463ZM17.1463 171.317V179.854H8.60976V171.317H17.1463ZM17.1463 162.78V171.317H8.60976V162.78H17.1463ZM17.1463 154.244V162.78H8.60976V154.244H17.1463ZM17.1463 145.707V154.244H8.60976V145.707H17.1463ZM8.60976 77.4146V85.9512H0.0731701V77.4146H8.60976ZM34.2195 77.4146V85.9512H25.6829V77.4146H34.2195ZM34.2195 85.9512V94.4878H25.6829V85.9512H34.2195ZM34.2195 94.4878V103.024H25.6829V94.4878H34.2195ZM34.2195 103.024V111.561H25.6829V103.024H34.2195ZM34.2195 111.561V120.098H25.6829V111.561H34.2195ZM42.7561 120.098V128.634H34.2195V120.098H42.7561ZM42.7561 128.634V137.171H34.2195V128.634H42.7561ZM42.7561 137.171V145.707H34.2195V137.171H42.7561ZM42.7561 111.561V120.098H34.2195V111.561H42.7561ZM42.7561 103.024V111.561H34.2195V103.024H42.7561ZM42.7561 94.4878V103.024H34.2195V94.4878H42.7561ZM42.7561 85.9512V94.4878H34.2195V85.9512H42.7561ZM42.7561 77.4146V85.9512H34.2195V77.4146H42.7561ZM17.1463 77.4146V85.9512H8.60976V77.4146H17.1463ZM25.6829 77.4146V85.9512H17.1463V77.4146H25.6829ZM25.6829 85.9512V94.4878H17.1463V85.9512H25.6829ZM25.6829 94.4878V103.024H17.1463V94.4878H25.6829ZM25.6829 103.024V111.561H17.1463V103.024H25.6829ZM25.6829 111.561V120.098H17.1463V111.561H25.6829ZM25.6829 120.098V128.634H17.1463V120.098H25.6829ZM25.6829 128.634V137.171H17.1463V128.634H25.6829ZM25.6829 137.171V145.707H17.1463V137.171H25.6829ZM34.2195 128.634V137.171H25.6829V128.634H34.2195ZM34.2195 120.098V128.634H25.6829V120.098H34.2195ZM111.049 205.463V214H102.512V205.463H111.049ZM111.049 196.927V205.463H102.512V196.927H111.049ZM111.049 188.39V196.927H102.512V188.39H111.049ZM111.049 179.854V188.39H102.512V179.854H111.049ZM111.049 171.317V179.854H102.512V171.317H111.049ZM111.049 162.78V171.317H102.512V162.78H111.049ZM111.049 154.244V162.78H102.512V154.244H111.049ZM128.122 154.244V162.78H119.585V154.244H128.122ZM128.122 162.78V171.317H119.585V162.78H128.122ZM128.122 171.317V179.854H119.585V171.317H128.122ZM128.122 179.854V188.39H119.585V179.854H128.122ZM128.122 188.39V196.927H119.585V188.39H128.122ZM128.122 196.927V205.463H119.585V196.927H128.122ZM145.195 171.317V179.854H136.659V171.317H145.195ZM145.195 162.78V171.317H136.659V162.78H145.195ZM145.195 154.244V162.78H136.659V154.244H145.195ZM136.659 154.244V162.78H128.122V154.244H136.659ZM136.659 162.78V171.317H128.122V162.78H136.659ZM136.659 171.317V179.854H128.122V171.317H136.659ZM136.659 179.854V188.39H128.122V179.854H136.659ZM136.659 188.39V196.927H128.122V188.39H136.659ZM119.585 196.927V205.463H111.049V196.927H119.585ZM119.585 188.39V196.927H111.049V188.39H119.585ZM119.585 179.854V188.39H111.049V179.854H119.585ZM119.585 171.317V179.854H111.049V171.317H119.585ZM119.585 162.78V171.317H111.049V162.78H119.585ZM119.585 154.244V162.78H111.049V154.244H119.585ZM51.2927 205.463V214H42.7561V205.463H51.2927ZM59.8293 205.463V214H51.2927V205.463H59.8293ZM68.3659 205.463V214H59.8293V205.463H68.3659ZM76.9024 205.463V214H68.3659V205.463H76.9024ZM93.9756 205.463V214H85.439V205.463H93.9756ZM102.512 205.463V214H93.9756V205.463H102.512ZM102.512 196.927V205.463H93.9756V196.927H102.512ZM93.9756 196.927V205.463H85.439V196.927H93.9756ZM76.9024 196.927V205.463H68.3659V196.927H76.9024ZM68.3659 196.927V205.463H59.8293V196.927H68.3659ZM59.8293 196.927V205.463H51.2927V196.927H59.8293ZM51.2927 196.927V205.463H42.7561V196.927H51.2927ZM51.2927 188.39V196.927H42.7561V188.39H51.2927ZM59.8293 188.39V196.927H51.2927V188.39H59.8293ZM68.3659 188.39V196.927H59.8293V188.39H68.3659ZM76.9024 188.39V196.927H68.3659V188.39H76.9024ZM93.9756 188.39V196.927H85.439V188.39H93.9756ZM102.512 188.39V196.927H93.9756V188.39H102.512ZM102.512 179.854V188.39H93.9756V179.854H102.512ZM93.9756 179.854V188.39H85.439V179.854H93.9756ZM76.9024 179.854V188.39H68.3659V179.854H76.9024ZM68.3659 179.854V188.39H59.8293V179.854H68.3659ZM59.8293 179.854V188.39H51.2927V179.854H59.8293ZM51.2927 179.854V188.39H42.7561V179.854H51.2927ZM51.2927 171.317V179.854H42.7561V171.317H51.2927ZM102.512 171.317V179.854H93.9756V171.317H102.512ZM136.659 43.2683V34.7317H145.195V43.2683H136.659ZM136.659 51.8049V43.2683H145.195V51.8049H136.659ZM136.659 60.3415V51.8049H145.195V60.3415H136.659ZM119.585 60.3415V51.8049H128.122V60.3415H119.585ZM119.585 51.8049V43.2683H128.122V51.8049H119.585ZM119.585 43.2683V34.7317H128.122V43.2683H119.585ZM119.585 34.7317V26.1951H128.122V34.7317H119.585ZM119.585 26.1951V17.6585H128.122V26.1951H119.585ZM119.585 17.6585V9.12196H128.122V17.6585H119.585ZM102.512 9.12196V0.585361H111.049V9.12196H102.512ZM102.512 17.6585V9.12196H111.049V17.6585H102.512ZM102.512 26.1951V17.6585H111.049V26.1951H102.512ZM102.512 34.7317V26.1951H111.049V34.7317H102.512ZM102.512 43.2683V34.7317H111.049V43.2683H102.512ZM102.512 51.8049V43.2683H111.049V51.8049H102.512ZM102.512 60.3415V51.8049H111.049V60.3415H102.512ZM111.049 60.3415V51.8049H119.585V60.3415H111.049ZM111.049 51.8049V43.2683H119.585V51.8049H111.049ZM111.049 43.2683V34.7317H119.585V43.2683H111.049ZM111.049 34.7317V26.1951H119.585V34.7317H111.049ZM111.049 26.1951V17.6585H119.585V26.1951H111.049ZM111.049 17.6585V9.12196H119.585V17.6585H111.049ZM128.122 26.1951V17.6585H136.659V26.1951H128.122ZM128.122 34.7317V26.1951H136.659V34.7317H128.122ZM128.122 43.2683V34.7317H136.659V43.2683H128.122ZM128.122 51.8049V43.2683H136.659V51.8049H128.122ZM128.122 60.3415V51.8049H136.659V60.3415H128.122ZM34.2195 9.12196V0.585361H42.7561V9.12196H34.2195ZM34.2195 17.6585V9.12196H42.7561V17.6585H34.2195ZM34.2195 26.1951V17.6585H42.7561V26.1951H34.2195ZM34.2195 34.7317V26.1951H42.7561V34.7317H34.2195ZM34.2195 43.2683V34.7317H42.7561V43.2683H34.2195ZM34.2195 51.8049V43.2683H42.7561V51.8049H34.2195ZM34.2195 60.3415V51.8049H42.7561V60.3415H34.2195ZM17.1463 60.3415V51.8049H25.6829V60.3415H17.1463ZM17.1463 51.8049V43.2683H25.6829V51.8049H17.1463ZM17.1463 43.2683V34.7317H25.6829V43.2683H17.1463ZM17.1463 34.7317V26.1951H25.6829V34.7317H17.1463ZM17.1463 26.1951V17.6585H25.6829V26.1951H17.1463ZM17.1463 17.6585V9.12196H25.6829V17.6585H17.1463ZM0.0731701 43.2683V34.7317H8.60976V43.2683H0.0731701ZM0.0731701 51.8049V43.2683H8.60976V51.8049H0.0731701ZM0.0731701 60.3415V51.8049H8.60976V60.3415H0.0731701ZM8.60976 60.3415V51.8049H17.1463V60.3415H8.60976ZM8.60976 51.8049V43.2683H17.1463V51.8049H8.60976ZM8.60976 43.2683V34.7317H17.1463V43.2683H8.60976ZM8.60976 34.7317V26.1951H17.1463V34.7317H8.60976ZM8.60976 26.1951V17.6585H17.1463V26.1951H8.60976ZM25.6829 17.6585V9.12196H34.2195V17.6585H25.6829ZM25.6829 26.1951V17.6585H34.2195V26.1951H25.6829ZM25.6829 34.7317V26.1951H34.2195V34.7317H25.6829ZM25.6829 43.2683V34.7317H34.2195V43.2683H25.6829ZM25.6829 51.8049V43.2683H34.2195V51.8049H25.6829ZM25.6829 60.3415V51.8049H34.2195V60.3415H25.6829ZM93.9756 9.12196V0.585361H102.512V9.12196H93.9756ZM85.439 9.12196V0.585361H93.9756V9.12196H85.439ZM68.3659 9.12196V0.585361H76.9024V9.12196H68.3659ZM59.8293 9.12196V0.585361H68.3659V9.12196H59.8293ZM51.2927 9.12196V0.585361H59.8293V9.12196H51.2927ZM42.7561 9.12196V0.585361H51.2927V9.12196H42.7561ZM42.7561 17.6585V9.12196H51.2927V17.6585H42.7561ZM51.2927 17.6585V9.12196H59.8293V17.6585H51.2927ZM59.8293 17.6585V9.12196H68.3659V17.6585H59.8293ZM68.3659 17.6585V9.12196H76.9024V17.6585H68.3659ZM85.439 17.6585V9.12196H93.9756V17.6585H85.439ZM93.9756 17.6585V9.12196H102.512V17.6585H93.9756ZM93.9756 26.1951V17.6585H102.512V26.1951H93.9756ZM85.439 26.1951V17.6585H93.9756V26.1951H85.439ZM68.3659 26.1951V17.6585H76.9024V26.1951H68.3659ZM59.8293 26.1951V17.6585H68.3659V26.1951H59.8293ZM51.2927 26.1951V17.6585H59.8293V26.1951H51.2927ZM42.7561 26.1951V17.6585H51.2927V26.1951H42.7561ZM42.7561 34.7317V26.1951H51.2927V34.7317H42.7561ZM51.2927 34.7317V26.1951H59.8293V34.7317H51.2927ZM59.8293 34.7317V26.1951H68.3659V34.7317H59.8293ZM68.3659 34.7317V26.1951H76.9024V34.7317H68.3659ZM85.439 34.7317V26.1951H93.9756V34.7317H85.439ZM93.9756 34.7317V26.1951H102.512V34.7317H93.9756ZM93.9756 43.2683V34.7317H102.512V43.2683H93.9756ZM42.7561 43.2683V34.7317H51.2927V43.2683H42.7561ZM8.60976 68.8781V77.4146H0.0731701V68.8781H8.60976ZM17.1463 68.8781V77.4146H8.60976V68.8781H17.1463ZM8.60976 60.3415V68.8781H0.0731701V60.3415H8.60976ZM34.2195 60.3415V68.8781H25.6829V60.3415H34.2195ZM34.2195 68.8781V77.4146H25.6829V68.8781H34.2195ZM42.7561 68.8781V77.4146H34.2195V68.8781H42.7561ZM42.7561 60.3415V68.8781H34.2195V60.3415H42.7561ZM17.1463 60.3415V68.8781H8.60976V60.3415H17.1463ZM25.6829 60.3415V68.8781H17.1463V60.3415H25.6829ZM25.6829 68.8781V77.4146H17.1463V68.8781H25.6829ZM76.9024 94.4878V103.024H68.3659V94.4878H76.9024ZM76.9024 103.024V111.561H68.3659V103.024H76.9024ZM93.9756 103.024V111.561H85.439V103.024H93.9756ZM102.512 103.024V111.561H93.9756V103.024H102.512ZM111.049 103.024V111.561H102.512V103.024H111.049ZM119.585 103.024V111.561H111.049V103.024H119.585ZM128.122 103.024V111.561H119.585V103.024H128.122ZM136.659 103.024V111.561H128.122V103.024H136.659ZM145.195 94.4878V103.024H136.659V94.4878H145.195ZM136.659 94.4878V103.024H128.122V94.4878H136.659ZM128.122 94.4878V103.024H119.585V94.4878H128.122ZM119.585 94.4878V103.024H111.049V94.4878H119.585ZM111.049 94.4878V103.024H102.512V94.4878H111.049ZM102.512 94.4878V103.024H93.9756V94.4878H102.512ZM93.9756 94.4878V103.024H85.439V94.4878H93.9756ZM145.195 103.024V111.561H136.659V103.024H145.195ZM145.195 111.561V120.098H136.659V111.561H145.195ZM145.195 120.098V128.634H136.659V120.098H145.195ZM145.195 128.634V137.171H136.659V128.634H145.195ZM145.195 137.171V145.707H136.659V137.171H145.195ZM145.195 145.707V154.244H136.659V145.707H145.195ZM136.659 145.707V154.244H128.122V145.707H136.659ZM128.122 145.707V154.244H119.585V145.707H128.122ZM119.585 145.707V154.244H111.049V145.707H119.585ZM111.049 145.707V154.244H102.512V145.707H111.049ZM111.049 137.171V145.707H102.512V137.171H111.049ZM119.585 137.171V145.707H111.049V137.171H119.585ZM128.122 137.171V145.707H119.585V137.171H128.122ZM136.659 137.171V145.707H128.122V137.171H136.659ZM136.659 128.634V137.171H128.122V128.634H136.659ZM128.122 128.634V137.171H119.585V128.634H128.122ZM119.585 128.634V137.171H111.049V128.634H119.585ZM111.049 128.634V137.171H102.512V128.634H111.049ZM76.9024 111.561V120.098H68.3659V111.561H76.9024ZM76.9024 120.098V128.634H68.3659V120.098H76.9024ZM93.9756 120.098V128.634H85.439V120.098H93.9756ZM102.512 120.098V128.634H93.9756V120.098H102.512ZM111.049 120.098V128.634H102.512V120.098H111.049ZM119.585 120.098V128.634H111.049V120.098H119.585ZM128.122 120.098V128.634H119.585V120.098H128.122ZM136.659 120.098V128.634H128.122V120.098H136.659ZM136.659 111.561V120.098H128.122V111.561H136.659ZM128.122 111.561V120.098H119.585V111.561H128.122ZM119.585 111.561V120.098H111.049V111.561H119.585ZM111.049 111.561V120.098H102.512V111.561H111.049ZM102.512 111.561V120.098H93.9756V111.561H102.512ZM93.9756 111.561V120.098H85.439V111.561H93.9756ZM59.8293 171.317V179.854H51.2927V171.317H59.8293ZM68.3659 171.317V179.854H59.8293V171.317H68.3659ZM76.9024 171.317V179.854H68.3659V171.317H76.9024ZM93.9756 171.317V179.854H85.439V171.317H93.9756ZM102.512 162.78V171.317H93.9756V162.78H102.512ZM51.2927 162.78V171.317H42.7561V162.78H51.2927ZM59.8293 34.7317V43.2683H51.2927V34.7317H59.8293ZM68.3659 34.7317V43.2683H59.8293V34.7317H68.3659ZM76.9024 34.7317V43.2683H68.3659V34.7317H76.9024ZM93.9756 34.7317V43.2683H85.439V34.7317H93.9756ZM51.2927 43.2683V51.8049H42.7561V43.2683H51.2927ZM102.512 43.2683V51.8049H93.9756V43.2683H102.512ZM111.049 60.3415V68.8781H102.512V60.3415H111.049ZM119.585 60.3415V68.8781H111.049V60.3415H119.585ZM128.122 60.3415V68.8781H119.585V60.3415H128.122ZM136.659 60.3415V68.8781H128.122V60.3415H136.659ZM145.195 60.3415V68.8781H136.659V60.3415H145.195ZM76.9024 128.634V137.171H68.3659V128.634H76.9024ZM93.9756 128.634V137.171H85.439V128.634H93.9756ZM102.512 128.634V137.171H93.9756V128.634H102.512ZM85.439 0.585361V9.12196H76.9024V0.585361H85.439ZM85.439 9.12196V17.6585H76.9024V9.12196H85.439ZM85.439 17.6585V26.1951H76.9024V17.6585H85.439ZM85.439 26.1951V34.7317H76.9024V26.1951H85.439ZM85.439 34.7317V43.2683H76.9024V34.7317H85.439ZM85.439 94.4878V103.024H76.9024V94.4878H85.439ZM85.439 103.024V111.561H76.9024V103.024H85.439ZM85.439 111.561V120.098H76.9024V111.561H85.439ZM85.439 120.098V128.634H76.9024V120.098H85.439ZM85.439 128.634V137.171H76.9024V128.634H85.439ZM85.439 171.317V179.854H76.9024V171.317H85.439ZM85.439 179.854V188.39H76.9024V179.854H85.439ZM85.439 188.39V196.927H76.9024V188.39H85.439ZM85.439 196.927V205.463H76.9024V196.927H85.439ZM85.439 205.463V214H76.9024V205.463H85.439ZM187.711 171.317V179.854H179.175V171.317H187.711ZM187.711 162.78V171.317H179.175V162.78H187.711ZM187.711 154.244V162.78H179.175V154.244H187.711ZM187.711 145.707V154.244H179.175V145.707H187.711ZM187.711 85.9512V94.4878H179.175V85.9512H187.711ZM196.248 85.9512V94.4878H187.711V85.9512H196.248ZM196.248 94.4878V103.024H187.711V94.4878H196.248ZM196.248 103.024V111.561H187.711V103.024H196.248ZM204.784 145.707V154.244H196.248V145.707H204.784ZM204.784 154.244V162.78H196.248V154.244H204.784ZM204.784 162.78V171.317H196.248V162.78H204.784ZM204.784 171.317V179.854H196.248V171.317H204.784ZM204.784 179.854V188.39H196.248V179.854H204.784ZM204.784 188.39V196.927H196.248V188.39H204.784ZM204.784 196.927V205.463H196.248V196.927H204.784ZM221.858 205.463V214H213.321V205.463H221.858ZM221.858 196.927V205.463H213.321V196.927H221.858ZM221.858 188.39V196.927H213.321V188.39H221.858ZM221.858 179.854V188.39H213.321V179.854H221.858ZM221.858 171.317V179.854H213.321V171.317H221.858ZM221.858 162.78V171.317H213.321V162.78H221.858ZM221.858 154.244V162.78H213.321V154.244H221.858ZM221.858 145.707V154.244H213.321V145.707H221.858ZM213.321 145.707V154.244H204.784V145.707H213.321ZM213.321 154.244V162.78H204.784V154.244H213.321ZM213.321 162.78V171.317H204.784V162.78H213.321ZM213.321 171.317V179.854H204.784V171.317H213.321ZM213.321 179.854V188.39H204.784V179.854H213.321ZM213.321 188.39V196.927H204.784V188.39H213.321ZM213.321 196.927V205.463H204.784V196.927H213.321ZM196.248 188.39V196.927H187.711V188.39H196.248ZM196.248 179.854V188.39H187.711V179.854H196.248ZM196.248 171.317V179.854H187.711V171.317H196.248ZM196.248 162.78V171.317H187.711V162.78H196.248ZM196.248 154.244V162.78H187.711V154.244H196.248ZM196.248 145.707V154.244H187.711V145.707H196.248ZM187.711 77.4146V85.9512H179.175V77.4146H187.711ZM213.321 77.4146V85.9512H204.784V77.4146H213.321ZM213.321 85.9512V94.4878H204.784V85.9512H213.321ZM213.321 94.4878V103.024H204.784V94.4878H213.321ZM213.321 103.024V111.561H204.784V103.024H213.321ZM213.321 111.561V120.098H204.784V111.561H213.321ZM221.858 120.098V128.634H213.321V120.098H221.858ZM221.858 111.561V120.098H213.321V111.561H221.858ZM221.858 103.024V111.561H213.321V103.024H221.858ZM221.858 94.4878V103.024H213.321V94.4878H221.858ZM221.858 85.9512V94.4878H213.321V85.9512H221.858ZM221.858 77.4146V85.9512H213.321V77.4146H221.858ZM196.248 77.4146V85.9512H187.711V77.4146H196.248ZM204.784 77.4146V85.9512H196.248V77.4146H204.784ZM204.784 85.9512V94.4878H196.248V85.9512H204.784ZM204.784 94.4878V103.024H196.248V94.4878H204.784ZM204.784 103.024V111.561H196.248V103.024H204.784ZM204.784 111.561V120.098H196.248V111.561H204.784ZM290.15 205.463V214H281.614V205.463H290.15ZM290.15 196.927V205.463H281.614V196.927H290.15ZM290.15 188.39V196.927H281.614V188.39H290.15ZM290.15 179.854V188.39H281.614V179.854H290.15ZM290.15 171.317V179.854H281.614V171.317H290.15ZM290.15 162.78V171.317H281.614V162.78H290.15ZM290.15 154.244V162.78H281.614V154.244H290.15ZM290.15 145.707V154.244H281.614V145.707H290.15ZM290.15 137.171V145.707H281.614V137.171H290.15ZM290.15 128.634V137.171H281.614V128.634H290.15ZM290.15 120.098V128.634H281.614V120.098H290.15ZM290.15 111.561V120.098H281.614V111.561H290.15ZM290.15 103.024V111.561H281.614V103.024H290.15ZM290.15 94.4878V103.024H281.614V94.4878H290.15ZM290.15 85.9512V94.4878H281.614V85.9512H290.15ZM298.687 94.4878V103.024H290.15V94.4878H298.687ZM298.687 103.024V111.561H290.15V103.024H298.687ZM298.687 111.561V120.098H290.15V111.561H298.687ZM298.687 120.098V128.634H290.15V120.098H298.687ZM298.687 128.634V137.171H290.15V128.634H298.687ZM298.687 137.171V145.707H290.15V137.171H298.687ZM307.224 145.707V154.244H298.687V145.707H307.224ZM307.224 154.244V162.78H298.687V154.244H307.224ZM307.224 162.78V171.317H298.687V162.78H307.224ZM307.224 171.317V179.854H298.687V171.317H307.224ZM307.224 179.854V188.39H298.687V179.854H307.224ZM307.224 188.39V196.927H298.687V188.39H307.224ZM307.224 196.927V205.463H298.687V196.927H307.224ZM324.297 171.317V179.854H315.76V171.317H324.297ZM324.297 162.78V171.317H315.76V162.78H324.297ZM324.297 154.244V162.78H315.76V154.244H324.297ZM324.297 145.707V154.244H315.76V145.707H324.297ZM315.76 145.707V154.244H307.224V145.707H315.76ZM315.76 137.171V145.707H307.224V137.171H315.76ZM315.76 154.244V162.78H307.224V154.244H315.76ZM315.76 162.78V171.317H307.224V162.78H315.76ZM315.76 171.317V179.854H307.224V171.317H315.76ZM315.76 179.854V188.39H307.224V179.854H315.76ZM315.76 188.39V196.927H307.224V188.39H315.76ZM298.687 196.927V205.463H290.15V196.927H298.687ZM298.687 188.39V196.927H290.15V188.39H298.687ZM298.687 179.854V188.39H290.15V179.854H298.687ZM298.687 171.317V179.854H290.15V171.317H298.687ZM298.687 162.78V171.317H290.15V162.78H298.687ZM298.687 154.244V162.78H290.15V154.244H298.687ZM298.687 145.707V154.244H290.15V145.707H298.687ZM315.76 111.561V120.098H307.224V111.561H315.76ZM324.297 120.098V128.634H315.76V120.098H324.297ZM324.297 128.634V137.171H315.76V128.634H324.297ZM324.297 137.171V145.707H315.76V137.171H324.297ZM307.224 94.4878V103.024H298.687V94.4878H307.224ZM307.224 103.024V111.561H298.687V103.024H307.224ZM307.224 111.561V120.098H298.687V111.561H307.224ZM307.224 120.098V128.634H298.687V120.098H307.224ZM307.224 128.634V137.171H298.687V128.634H307.224ZM307.224 137.171V145.707H298.687V137.171H307.224ZM315.76 128.634V137.171H307.224V128.634H315.76ZM315.76 120.098V128.634H307.224V120.098H315.76ZM230.394 205.463V214H221.858V205.463H230.394ZM238.931 205.463V214H230.394V205.463H238.931ZM247.467 205.463V214H238.931V205.463H247.467ZM264.541 205.463V214H256.004V205.463H264.541ZM273.077 205.463V214H264.541V205.463H273.077ZM281.614 205.463V214H273.077V205.463H281.614ZM281.614 196.927V205.463H273.077V196.927H281.614ZM273.077 196.927V205.463H264.541V196.927H273.077ZM264.541 196.927V205.463H256.004V196.927H264.541ZM247.467 196.927V205.463H238.931V196.927H247.467ZM238.931 196.927V205.463H230.394V196.927H238.931ZM230.394 196.927V205.463H221.858V196.927H230.394ZM230.394 188.39V196.927H221.858V188.39H230.394ZM238.931 188.39V196.927H230.394V188.39H238.931ZM247.467 188.39V196.927H238.931V188.39H247.467ZM264.541 188.39V196.927H256.004V188.39H264.541ZM273.077 188.39V196.927H264.541V188.39H273.077ZM281.614 188.39V196.927H273.077V188.39H281.614ZM281.614 179.854V188.39H273.077V179.854H281.614ZM273.077 179.854V188.39H264.541V179.854H273.077ZM264.541 179.854V188.39H256.004V179.854H264.541ZM247.467 179.854V188.39H238.931V179.854H247.467ZM238.931 179.854V188.39H230.394V179.854H238.931ZM230.394 179.854V188.39H221.858V179.854H230.394ZM230.394 171.317V179.854H221.858V171.317H230.394ZM281.614 171.317V179.854H273.077V171.317H281.614ZM315.76 43.2683V34.7317H324.297V43.2683H315.76ZM315.76 51.8049V43.2683H324.297V51.8049H315.76ZM315.76 60.3415V51.8049H324.297V60.3415H315.76ZM298.687 60.3415V51.8049H307.224V60.3415H298.687ZM298.687 51.8049V43.2683H307.224V51.8049H298.687ZM298.687 43.2683V34.7317H307.224V43.2683H298.687ZM298.687 34.7317V26.1951H307.224V34.7317H298.687ZM298.687 26.1951V17.6585H307.224V26.1951H298.687ZM298.687 17.6585V9.12196H307.224V17.6585H298.687ZM281.614 9.12196V0.585361H290.15V9.12196H281.614ZM281.614 17.6585V9.12196H290.15V17.6585H281.614ZM281.614 26.1951V17.6585H290.15V26.1951H281.614ZM281.614 34.7317V26.1951H290.15V34.7317H281.614ZM281.614 43.2683V34.7317H290.15V43.2683H281.614ZM281.614 51.8049V43.2683H290.15V51.8049H281.614ZM281.614 60.3415V51.8049H290.15V60.3415H281.614ZM290.15 60.3415V51.8049H298.687V60.3415H290.15ZM290.15 51.8049V43.2683H298.687V51.8049H290.15ZM290.15 43.2683V34.7317H298.687V43.2683H290.15ZM290.15 34.7317V26.1951H298.687V34.7317H290.15ZM290.15 26.1951V17.6585H298.687V26.1951H290.15ZM290.15 17.6585V9.12196H298.687V17.6585H290.15ZM307.224 26.1951V17.6585H315.76V26.1951H307.224ZM307.224 34.7317V26.1951H315.76V34.7317H307.224ZM307.224 43.2683V34.7317H315.76V43.2683H307.224ZM307.224 51.8049V43.2683H315.76V51.8049H307.224ZM307.224 60.3415V51.8049H315.76V60.3415H307.224ZM213.321 9.12196V0.585361H221.858V9.12196H213.321ZM213.321 17.6585V9.12196H221.858V17.6585H213.321ZM213.321 26.1951V17.6585H221.858V26.1951H213.321ZM213.321 34.7317V26.1951H221.858V34.7317H213.321ZM213.321 43.2683V34.7317H221.858V43.2683H213.321ZM213.321 51.8049V43.2683H221.858V51.8049H213.321ZM213.321 60.3415V51.8049H221.858V60.3415H213.321ZM196.248 60.3415V51.8049H204.784V60.3415H196.248ZM196.248 51.8049V43.2683H204.784V51.8049H196.248ZM196.248 43.2683V34.7317H204.784V43.2683H196.248ZM196.248 34.7317V26.1951H204.784V34.7317H196.248ZM196.248 26.1951V17.6585H204.784V26.1951H196.248ZM196.248 17.6585V9.12196H204.784V17.6585H196.248ZM179.175 43.2683V34.7317H187.711V43.2683H179.175ZM179.175 51.8049V43.2683H187.711V51.8049H179.175ZM179.175 60.3415V51.8049H187.711V60.3415H179.175ZM187.711 60.3415V51.8049H196.248V60.3415H187.711ZM187.711 51.8049V43.2683H196.248V51.8049H187.711ZM187.711 43.2683V34.7317H196.248V43.2683H187.711ZM187.711 34.7317V26.1951H196.248V34.7317H187.711ZM187.711 26.1951V17.6585H196.248V26.1951H187.711ZM204.784 17.6585V9.12196H213.321V17.6585H204.784ZM204.784 26.1951V17.6585H213.321V26.1951H204.784ZM204.784 34.7317V26.1951H213.321V34.7317H204.784ZM204.784 43.2683V34.7317H213.321V43.2683H204.784ZM204.784 51.8049V43.2683H213.321V51.8049H204.784ZM204.784 60.3415V51.8049H213.321V60.3415H204.784ZM273.077 9.12196V0.585361H281.614V9.12196H273.077ZM264.541 9.12196V0.585361H273.077V9.12196H264.541ZM256.004 9.12196V0.585361H264.541V9.12196H256.004ZM238.931 9.12196V0.585361H247.467V9.12196H238.931ZM230.394 9.12196V0.585361H238.931V9.12196H230.394ZM221.858 9.12196V0.585361H230.394V9.12196H221.858ZM221.858 17.6585V9.12196H230.394V17.6585H221.858ZM230.394 17.6585V9.12196H238.931V17.6585H230.394ZM238.931 17.6585V9.12196H247.467V17.6585H238.931ZM256.004 17.6585V9.12196H264.541V17.6585H256.004ZM264.541 17.6585V9.12196H273.077V17.6585H264.541ZM273.077 17.6585V9.12196H281.614V17.6585H273.077ZM273.077 26.1951V17.6585H281.614V26.1951H273.077ZM264.541 26.1951V17.6585H273.077V26.1951H264.541ZM256.004 26.1951V17.6585H264.541V26.1951H256.004ZM238.931 26.1951V17.6585H247.467V26.1951H238.931ZM230.394 26.1951V17.6585H238.931V26.1951H230.394ZM221.858 26.1951V17.6585H230.394V26.1951H221.858ZM221.858 34.7317V26.1951H230.394V34.7317H221.858ZM230.394 34.7317V26.1951H238.931V34.7317H230.394ZM238.931 34.7317V26.1951H247.467V34.7317H238.931ZM256.004 34.7317V26.1951H264.541V34.7317H256.004ZM264.541 34.7317V26.1951H273.077V34.7317H264.541ZM273.077 34.7317V26.1951H281.614V34.7317H273.077ZM273.077 43.2683V34.7317H281.614V43.2683H273.077ZM221.858 43.2683V34.7317H230.394V43.2683H221.858ZM187.711 68.8781V77.4146H179.175V68.8781H187.711ZM196.248 68.8781V77.4146H187.711V68.8781H196.248ZM187.711 60.3415V68.8781H179.175V60.3415H187.711ZM213.321 60.3415V68.8781H204.784V60.3415H213.321ZM213.321 68.8781V77.4146H204.784V68.8781H213.321ZM221.858 68.8781V77.4146H213.321V68.8781H221.858ZM221.858 60.3415V68.8781H213.321V60.3415H221.858ZM196.248 60.3415V68.8781H187.711V60.3415H196.248ZM204.784 60.3415V68.8781H196.248V60.3415H204.784ZM204.784 68.8781V77.4146H196.248V68.8781H204.784ZM238.931 171.317V179.854H230.394V171.317H238.931ZM247.467 171.317V179.854H238.931V171.317H247.467ZM264.541 171.317V179.854H256.004V171.317H264.541ZM273.077 171.317V179.854H264.541V171.317H273.077ZM281.614 162.78V171.317H273.077V162.78H281.614ZM230.394 162.78V171.317H221.858V162.78H230.394ZM238.931 34.7317V43.2683H230.394V34.7317H238.931ZM247.467 34.7317V43.2683H238.931V34.7317H247.467ZM264.541 34.7317V43.2683H256.004V34.7317H264.541ZM273.077 34.7317V43.2683H264.541V34.7317H273.077ZM281.614 43.2683V51.8049H273.077V43.2683H281.614ZM230.394 43.2683V51.8049H221.858V43.2683H230.394ZM247.467 103.024V111.561H238.931V103.024H247.467ZM264.541 103.024V111.561H256.004V103.024H264.541ZM273.077 103.024V111.561H264.541V103.024H273.077ZM281.614 103.024V111.561H273.077V103.024H281.614ZM281.614 111.561V120.098H273.077V111.561H281.614ZM273.077 111.561V120.098H264.541V111.561H273.077ZM264.541 111.561V120.098H256.004V111.561H264.541ZM247.467 111.561V120.098H238.931V111.561H247.467ZM247.467 85.9512V94.4878H238.931V85.9512H247.467ZM264.541 85.9512V94.4878H256.004V85.9512H264.541ZM273.077 85.9512V94.4878H264.541V85.9512H273.077ZM281.614 85.9512V94.4878H273.077V85.9512H281.614ZM281.614 94.4878V103.024H273.077V94.4878H281.614ZM273.077 94.4878V103.024H264.541V94.4878H273.077ZM264.541 94.4878V103.024H256.004V94.4878H264.541ZM247.467 94.4878V103.024H238.931V94.4878H247.467ZM247.467 120.098V128.634H238.931V120.098H247.467ZM264.541 120.098V128.634H256.004V120.098H264.541ZM273.077 120.098V128.634H264.541V120.098H273.077ZM281.614 120.098V128.634H273.077V120.098H281.614ZM315.76 103.024V111.561H307.224V103.024H315.76ZM281.614 128.634V137.171H273.077V128.634H281.614ZM230.394 85.9512V94.4878H221.858V85.9512H230.394ZM238.931 85.9512V94.4878H230.394V85.9512H238.931ZM230.394 77.4146V85.9512H221.858V77.4146H230.394ZM238.931 94.4878V103.024H230.394V94.4878H238.931ZM238.931 103.024V111.561H230.394V103.024H238.931ZM238.931 111.561V120.098H230.394V111.561H238.931ZM238.931 120.098V128.634H230.394V120.098H238.931ZM230.394 120.098V128.634H221.858V120.098H230.394ZM230.394 111.561V120.098H221.858V111.561H230.394ZM230.394 103.024V111.561H221.858V103.024H230.394ZM230.394 94.4878V103.024H221.858V94.4878H230.394ZM256.004 0.585361V9.12196H247.467V0.585361H256.004ZM256.004 9.12196V17.6585H247.467V9.12196H256.004ZM256.004 17.6585V26.1951H247.467V17.6585H256.004ZM256.004 26.1951V34.7317H247.467V26.1951H256.004ZM256.004 34.7317V43.2683H247.467V34.7317H256.004ZM256.004 85.9512V94.4878H247.467V85.9512H256.004ZM256.004 94.4878V103.024H247.467V94.4878H256.004ZM256.004 103.024V111.561H247.467V103.024H256.004ZM256.004 111.561V120.098H247.467V111.561H256.004ZM256.004 120.098V128.634H247.467V120.098H256.004ZM256.004 171.317V179.854H247.467V171.317H256.004ZM256.004 179.854V188.39H247.467V179.854H256.004ZM256.004 188.39V196.927H247.467V188.39H256.004ZM256.004 196.927V205.463H247.467V196.927H256.004ZM256.004 205.463V214H247.467V205.463H256.004Z" fill="#FC6D2F"/>
</svg>
